<?xml version="1.0" encoding="UTF-8"?>
<svg width="1081" height="1556" xmlns="http://www.w3.org/2000/svg">
<g transform="translate(50,1506) scale(1,-1)">
<circle cx="0" cy="0" r="3" fill="red"/>
<text x="5" y="5" font-size="8" fill="white" transform="scale(1,-1)">0</text>
<circle cx="337" cy="0" r="3" fill="red"/>
<text x="342" y="5" font-size="8" fill="white" transform="scale(1,-1)">1</text>
<circle cx="442" cy="1" r="2" fill="blue"/>
<text x="447" y="6" font-size="8" fill="white" transform="scale(1,-1)">2</text>
<circle cx="623" cy="49" r="2" fill="blue"/>
<text x="628" y="54" font-size="8" fill="white" transform="scale(1,-1)">3</text>
<circle cx="695" cy="94" r="3" fill="red"/>
<text x="700" y="99" font-size="8" fill="white" transform="scale(1,-1)">4</text>
<circle cx="763" cy="137" r="2" fill="blue"/>
<text x="768" y="142" font-size="8" fill="white" transform="scale(1,-1)">5</text>
<circle cx="873" cy="259" r="2" fill="blue"/>
<text x="878" y="264" font-size="8" fill="white" transform="scale(1,-1)">6</text>
<circle cx="909" cy="334" r="3" fill="red"/>
<text x="914" y="339" font-size="8" fill="white" transform="scale(1,-1)">7</text>
<circle cx="944" cy="406" r="2" fill="blue"/>
<text x="949" y="411" font-size="8" fill="white" transform="scale(1,-1)">8</text>
<circle cx="981" cy="578" r="2" fill="blue"/>
<text x="986" y="583" font-size="8" fill="white" transform="scale(1,-1)">9</text>
<circle cx="981" cy="674" r="3" fill="red"/>
<text x="986" y="679" font-size="8" fill="white" transform="scale(1,-1)">10</text>
<circle cx="981" cy="781" r="3" fill="red"/>
<text x="986" y="786" font-size="8" fill="white" transform="scale(1,-1)">11</text>
<circle cx="980" cy="881" r="2" fill="blue"/>
<text x="985" y="886" font-size="8" fill="white" transform="scale(1,-1)">12</text>
<circle cx="941" cy="1057" r="2" fill="blue"/>
<text x="946" y="1062" font-size="8" fill="white" transform="scale(1,-1)">13</text>
<circle cx="904" cy="1131" r="3" fill="red"/>
<text x="909" y="1136" font-size="8" fill="white" transform="scale(1,-1)">14</text>
<circle cx="863" cy="1218" r="2" fill="blue"/>
<text x="868" y="1223" font-size="8" fill="white" transform="scale(1,-1)">15</text>
<circle cx="726" cy="1351" r="2" fill="blue"/>
<text x="731" y="1356" font-size="8" fill="white" transform="scale(1,-1)">16</text>
<circle cx="637" cy="1392" r="3" fill="red"/>
<text x="642" y="1397" font-size="8" fill="white" transform="scale(1,-1)">17</text>
<circle cx="573" cy="1422" r="2" fill="blue"/>
<text x="578" y="1427" font-size="8" fill="white" transform="scale(1,-1)">18</text>
<circle cx="422" cy="1455" r="2" fill="blue"/>
<text x="427" y="1460" font-size="8" fill="white" transform="scale(1,-1)">19</text>
<circle cx="337" cy="1456" r="3" fill="red"/>
<text x="342" y="1461" font-size="8" fill="white" transform="scale(1,-1)">20</text>
<circle cx="0" cy="1456" r="3" fill="red"/>
<text x="5" y="1461" font-size="8" fill="white" transform="scale(1,-1)">21</text>
<circle cx="188" cy="1304" r="3" fill="red"/>
<text x="193" y="1309" font-size="8" fill="white" transform="scale(1,-1)">22</text>
<circle cx="337" cy="1304" r="3" fill="red"/>
<text x="342" y="1309" font-size="8" fill="white" transform="scale(1,-1)">23</text>
<circle cx="406" cy="1303" r="2" fill="blue"/>
<text x="411" y="1308" font-size="8" fill="white" transform="scale(1,-1)">24</text>
<circle cx="522" cy="1274" r="2" fill="blue"/>
<text x="527" y="1279" font-size="8" fill="white" transform="scale(1,-1)">25</text>
<circle cx="569" cy="1248" r="3" fill="red"/>
<text x="574" y="1253" font-size="8" fill="white" transform="scale(1,-1)">26</text>
<circle cx="635" cy="1213" r="2" fill="blue"/>
<text x="640" y="1218" font-size="8" fill="white" transform="scale(1,-1)">27</text>
<circle cx="726" cy="1100" r="2" fill="blue"/>
<text x="731" y="1105" font-size="8" fill="white" transform="scale(1,-1)">28</text>
<circle cx="753" cy="1030" r="3" fill="red"/>
<text x="758" y="1035" font-size="8" fill="white" transform="scale(1,-1)">29</text>
<circle cx="774" cy="976" r="2" fill="blue"/>
<text x="779" y="981" font-size="8" fill="white" transform="scale(1,-1)">30</text>
<circle cx="795" cy="851" r="2" fill="blue"/>
<text x="800" y="856" font-size="8" fill="white" transform="scale(1,-1)">31</text>
<circle cx="796" cy="783" r="3" fill="red"/>
<text x="801" y="788" font-size="8" fill="white" transform="scale(1,-1)">32</text>
<circle cx="796" cy="674" r="3" fill="red"/>
<text x="801" y="679" font-size="8" fill="white" transform="scale(1,-1)">33</text>
<circle cx="795" cy="607" r="2" fill="blue"/>
<text x="800" y="612" font-size="8" fill="white" transform="scale(1,-1)">34</text>
<circle cx="775" cy="484" r="2" fill="blue"/>
<text x="780" y="489" font-size="8" fill="white" transform="scale(1,-1)">35</text>
<circle cx="755" cy="431" r="3" fill="red"/>
<text x="760" y="436" font-size="8" fill="white" transform="scale(1,-1)">36</text>
<circle cx="732" cy="366" r="2" fill="blue"/>
<text x="737" y="371" font-size="8" fill="white" transform="scale(1,-1)">37</text>
<circle cx="653" cy="261" r="2" fill="blue"/>
<text x="658" y="266" font-size="8" fill="white" transform="scale(1,-1)">38</text>
<circle cx="599" cy="225" r="3" fill="red"/>
<text x="604" y="230" font-size="8" fill="white" transform="scale(1,-1)">39</text>
<circle cx="548" cy="190" r="2" fill="blue"/>
<text x="553" y="195" font-size="8" fill="white" transform="scale(1,-1)">40</text>
<circle cx="417" cy="152" r="2" fill="blue"/>
<text x="422" y="157" font-size="8" fill="white" transform="scale(1,-1)">41</text>
<circle cx="337" cy="151" r="3" fill="red"/>
<text x="342" y="156" font-size="8" fill="white" transform="scale(1,-1)">42</text>
<circle cx="188" cy="151" r="3" fill="red"/>
<text x="193" y="156" font-size="8" fill="white" transform="scale(1,-1)">43</text>
<polyline points="0,0 337,0 442,1 623,49 695,94 763,137 873,259 909,334 944,406 981,578 981,674 981,781 980,881 941,1057 904,1131 863,1218 726,1351 637,1392 573,1422 422,1455 337,1456 0,1456 " fill="none" stroke="green" stroke-width="1"/>
<polyline points="188,1304 337,1304 406,1303 522,1274 569,1248 635,1213 726,1100 753,1030 774,976 795,851 796,783 796,674 795,607 775,484 755,431 732,366 653,261 599,225 548,190 417,152 337,151 188,151 " fill="none" stroke="green" stroke-width="1"/>
</g>
</svg>
