<?xml version="1.0" encoding="UTF-8"?>
<svg width="1187" height="1556" xmlns="http://www.w3.org/2000/svg">
<g transform="translate(50,1506) scale(1,-1)">
<circle cx="788" cy="377" r="3" fill="red"/>
<text x="793" y="382" font-size="8" fill="white" transform="scale(1,-1)">0</text>
<circle cx="903" cy="0" r="3" fill="red"/>
<text x="908" y="5" font-size="8" fill="white" transform="scale(1,-1)">1</text>
<circle cx="1087" cy="0" r="3" fill="red"/>
<text x="1092" y="5" font-size="8" fill="white" transform="scale(1,-1)">2</text>
<circle cx="625" cy="1456" r="3" fill="red"/>
<text x="630" y="1461" font-size="8" fill="white" transform="scale(1,-1)">3</text>
<circle cx="470" cy="1456" r="3" fill="red"/>
<text x="475" y="1461" font-size="8" fill="white" transform="scale(1,-1)">4</text>
<circle cx="0" cy="0" r="3" fill="red"/>
<text x="5" y="5" font-size="8" fill="white" transform="scale(1,-1)">5</text>
<circle cx="185" cy="0" r="3" fill="red"/>
<text x="190" y="5" font-size="8" fill="white" transform="scale(1,-1)">6</text>
<circle cx="302" cy="377" r="3" fill="red"/>
<text x="307" y="382" font-size="8" fill="white" transform="scale(1,-1)">7</text>
<circle cx="352" cy="538" r="3" fill="red"/>
<text x="357" y="543" font-size="8" fill="white" transform="scale(1,-1)">8</text>
<circle cx="547" cy="1170" r="3" fill="red"/>
<text x="552" y="1175" font-size="8" fill="white" transform="scale(1,-1)">9</text>
<circle cx="739" cy="538" r="3" fill="red"/>
<text x="744" y="543" font-size="8" fill="white" transform="scale(1,-1)">10</text>
<polyline points="788,377 903,0 1087,0 625,1456 470,1456 0,0 185,0 302,377 " fill="none" stroke="green" stroke-width="1"/>
<polyline points="352,538 547,1170 739,538 " fill="none" stroke="green" stroke-width="1"/>
</g>
</svg>
