<?xml version="1.0" encoding="UTF-8"?>
<svg width="994" height="1556" xmlns="http://www.w3.org/2000/svg">
<g transform="translate(50,1506) scale(1,-1)">
<circle cx="793" cy="673" r="3" fill="red"/>
<text x="798" y="678" font-size="8" fill="white" transform="scale(1,-1)">0</text>
<circle cx="793" cy="830" r="3" fill="red"/>
<text x="798" y="835" font-size="8" fill="white" transform="scale(1,-1)">1</text>
<circle cx="185" cy="830" r="3" fill="red"/>
<text x="190" y="835" font-size="8" fill="white" transform="scale(1,-1)">2</text>
<circle cx="185" cy="1298" r="3" fill="red"/>
<text x="190" y="1303" font-size="8" fill="white" transform="scale(1,-1)">3</text>
<circle cx="885" cy="1298" r="3" fill="red"/>
<text x="890" y="1303" font-size="8" fill="white" transform="scale(1,-1)">4</text>
<circle cx="885" cy="1456" r="3" fill="red"/>
<text x="890" y="1461" font-size="8" fill="white" transform="scale(1,-1)">5</text>
<circle cx="0" cy="1456" r="3" fill="red"/>
<text x="5" y="1461" font-size="8" fill="white" transform="scale(1,-1)">6</text>
<circle cx="0" cy="0" r="3" fill="red"/>
<text x="5" y="5" font-size="8" fill="white" transform="scale(1,-1)">7</text>
<circle cx="894" cy="0" r="3" fill="red"/>
<text x="899" y="5" font-size="8" fill="white" transform="scale(1,-1)">8</text>
<circle cx="894" cy="157" r="3" fill="red"/>
<text x="899" y="162" font-size="8" fill="white" transform="scale(1,-1)">9</text>
<circle cx="185" cy="157" r="3" fill="red"/>
<text x="190" y="162" font-size="8" fill="white" transform="scale(1,-1)">10</text>
<circle cx="185" cy="673" r="3" fill="red"/>
<text x="190" y="678" font-size="8" fill="white" transform="scale(1,-1)">11</text>
<polyline points="793,673 793,830 185,830 185,1298 885,1298 885,1456 0,1456 0,0 894,0 894,157 185,157 185,673 " fill="none" stroke="green" stroke-width="1"/>
</g>
</svg>
