<?xml version="1.0" encoding="UTF-8"?>
<svg width="1110" height="1596" xmlns="http://www.w3.org/2000/svg">
<g transform="translate(50,1546) scale(1,-1)">
<circle cx="1010" cy="458" r="3" fill="red"/>
<text x="1015" y="463" font-size="8" fill="white" transform="scale(1,-1)">0</text>
<circle cx="825" cy="458" r="3" fill="red"/>
<text x="830" y="463" font-size="8" fill="white" transform="scale(1,-1)">1</text>
<circle cx="816" cy="392" r="2" fill="blue"/>
<text x="821" y="397" font-size="8" fill="white" transform="scale(1,-1)">2</text>
<circle cx="772" cy="279" r="2" fill="blue"/>
<text x="777" y="284" font-size="8" fill="white" transform="scale(1,-1)">3</text>
<circle cx="735" cy="238" r="3" fill="red"/>
<text x="740" y="243" font-size="8" fill="white" transform="scale(1,-1)">4</text>
<circle cx="698" cy="196" r="2" fill="blue"/>
<text x="703" y="201" font-size="8" fill="white" transform="scale(1,-1)">5</text>
<circle cx="591" cy="150" r="2" fill="blue"/>
<text x="596" y="155" font-size="8" fill="white" transform="scale(1,-1)">6</text>
<circle cx="518" cy="150" r="3" fill="red"/>
<text x="523" y="155" font-size="8" fill="white" transform="scale(1,-1)">7</text>
<circle cx="451" cy="150" r="2" fill="blue"/>
<text x="456" y="155" font-size="8" fill="white" transform="scale(1,-1)">8</text>
<circle cx="351" cy="193" r="2" fill="blue"/>
<text x="356" y="198" font-size="8" fill="white" transform="scale(1,-1)">9</text>
<circle cx="314" cy="231" r="3" fill="red"/>
<text x="319" y="236" font-size="8" fill="white" transform="scale(1,-1)">10</text>
<circle cx="277" cy="268" r="2" fill="blue"/>
<text x="282" y="273" font-size="8" fill="white" transform="scale(1,-1)">11</text>
<circle cx="229" cy="366" r="2" fill="blue"/>
<text x="234" y="371" font-size="8" fill="white" transform="scale(1,-1)">12</text>
<circle cx="214" cy="422" r="3" fill="red"/>
<text x="219" y="427" font-size="8" fill="white" transform="scale(1,-1)">13</text>
<circle cx="199" cy="477" r="2" fill="blue"/>
<text x="204" y="482" font-size="8" fill="white" transform="scale(1,-1)">14</text>
<circle cx="186" cy="592" r="2" fill="blue"/>
<text x="191" y="597" font-size="8" fill="white" transform="scale(1,-1)">15</text>
<circle cx="186" cy="646" r="3" fill="red"/>
<text x="191" y="651" font-size="8" fill="white" transform="scale(1,-1)">16</text>
<circle cx="186" cy="851" r="3" fill="red"/>
<text x="191" y="856" font-size="8" fill="white" transform="scale(1,-1)">17</text>
<circle cx="186" cy="905" r="2" fill="blue"/>
<text x="191" y="910" font-size="8" fill="white" transform="scale(1,-1)">18</text>
<circle cx="199" cy="1020" r="2" fill="blue"/>
<text x="204" y="1025" font-size="8" fill="white" transform="scale(1,-1)">19</text>
<circle cx="214" cy="1075" r="3" fill="red"/>
<text x="219" y="1080" font-size="8" fill="white" transform="scale(1,-1)">20</text>
<circle cx="229" cy="1130" r="2" fill="blue"/>
<text x="234" y="1135" font-size="8" fill="white" transform="scale(1,-1)">21</text>
<circle cx="278" cy="1228" r="2" fill="blue"/>
<text x="283" y="1233" font-size="8" fill="white" transform="scale(1,-1)">22</text>
<circle cx="315" cy="1265" r="3" fill="red"/>
<text x="320" y="1270" font-size="8" fill="white" transform="scale(1,-1)">23</text>
<circle cx="351" cy="1302" r="2" fill="blue"/>
<text x="356" y="1307" font-size="8" fill="white" transform="scale(1,-1)">24</text>
<circle cx="452" cy="1345" r="2" fill="blue"/>
<text x="457" y="1350" font-size="8" fill="white" transform="scale(1,-1)">25</text>
<circle cx="518" cy="1345" r="3" fill="red"/>
<text x="523" y="1350" font-size="8" fill="white" transform="scale(1,-1)">26</text>
<circle cx="591" cy="1345" r="2" fill="blue"/>
<text x="596" y="1350" font-size="8" fill="white" transform="scale(1,-1)">27</text>
<circle cx="698" cy="1296" r="2" fill="blue"/>
<text x="703" y="1301" font-size="8" fill="white" transform="scale(1,-1)">28</text>
<circle cx="735" cy="1253" r="3" fill="red"/>
<text x="740" y="1258" font-size="8" fill="white" transform="scale(1,-1)">29</text>
<circle cx="772" cy="1210" r="2" fill="blue"/>
<text x="777" y="1215" font-size="8" fill="white" transform="scale(1,-1)">30</text>
<circle cx="816" cy="1096" r="2" fill="blue"/>
<text x="821" y="1101" font-size="8" fill="white" transform="scale(1,-1)">31</text>
<circle cx="825" cy="1030" r="3" fill="red"/>
<text x="830" y="1035" font-size="8" fill="white" transform="scale(1,-1)">32</text>
<circle cx="1010" cy="1030" r="3" fill="red"/>
<text x="1015" y="1035" font-size="8" fill="white" transform="scale(1,-1)">33</text>
<circle cx="998" cy="1134" r="2" fill="blue"/>
<text x="1003" y="1139" font-size="8" fill="white" transform="scale(1,-1)">34</text>
<circle cx="923" cy="1306" r="2" fill="blue"/>
<text x="928" y="1311" font-size="8" fill="white" transform="scale(1,-1)">35</text>
<circle cx="861" cy="1368" r="3" fill="red"/>
<text x="866" y="1373" font-size="8" fill="white" transform="scale(1,-1)">36</text>
<circle cx="799" cy="1429" r="2" fill="blue"/>
<text x="804" y="1434" font-size="8" fill="white" transform="scale(1,-1)">37</text>
<circle cx="627" cy="1496" r="2" fill="blue"/>
<text x="632" y="1501" font-size="8" fill="white" transform="scale(1,-1)">38</text>
<circle cx="518" cy="1496" r="3" fill="red"/>
<text x="523" y="1501" font-size="8" fill="white" transform="scale(1,-1)">39</text>
<circle cx="427" cy="1496" r="2" fill="blue"/>
<text x="432" y="1501" font-size="8" fill="white" transform="scale(1,-1)">40</text>
<circle cx="281" cy="1445" r="2" fill="blue"/>
<text x="286" y="1450" font-size="8" fill="white" transform="scale(1,-1)">41</text>
<circle cx="224" cy="1400" r="3" fill="red"/>
<text x="229" y="1405" font-size="8" fill="white" transform="scale(1,-1)">42</text>
<circle cx="166" cy="1355" r="2" fill="blue"/>
<text x="171" y="1360" font-size="8" fill="white" transform="scale(1,-1)">43</text>
<circle cx="83" cy="1232" r="2" fill="blue"/>
<text x="88" y="1237" font-size="8" fill="white" transform="scale(1,-1)">44</text>
<circle cx="56" cy="1160" r="3" fill="red"/>
<text x="61" y="1165" font-size="8" fill="white" transform="scale(1,-1)">45</text>
<circle cx="28" cy="1088" r="2" fill="blue"/>
<text x="33" y="1093" font-size="8" fill="white" transform="scale(1,-1)">46</text>
<circle cx="1" cy="930" r="2" fill="blue"/>
<text x="6" y="935" font-size="8" fill="white" transform="scale(1,-1)">47</text>
<circle cx="0" cy="849" r="3" fill="red"/>
<text x="5" y="854" font-size="8" fill="white" transform="scale(1,-1)">48</text>
<circle cx="0" cy="646" r="3" fill="red"/>
<text x="5" y="651" font-size="8" fill="white" transform="scale(1,-1)">49</text>
<circle cx="1" cy="565" r="2" fill="blue"/>
<text x="6" y="570" font-size="8" fill="white" transform="scale(1,-1)">50</text>
<circle cx="28" cy="407" r="2" fill="blue"/>
<text x="33" y="412" font-size="8" fill="white" transform="scale(1,-1)">51</text>
<circle cx="56" cy="335" r="3" fill="red"/>
<text x="61" y="340" font-size="8" fill="white" transform="scale(1,-1)">52</text>
<circle cx="83" cy="263" r="2" fill="blue"/>
<text x="88" y="268" font-size="8" fill="white" transform="scale(1,-1)">53</text>
<circle cx="166" cy="141" r="2" fill="blue"/>
<text x="171" y="146" font-size="8" fill="white" transform="scale(1,-1)">54</text>
<circle cx="224" cy="96" r="3" fill="red"/>
<text x="229" y="101" font-size="8" fill="white" transform="scale(1,-1)">55</text>
<circle cx="281" cy="51" r="2" fill="blue"/>
<text x="286" y="56" font-size="8" fill="white" transform="scale(1,-1)">56</text>
<circle cx="428" cy="0" r="2" fill="blue"/>
<text x="433" y="5" font-size="8" fill="white" transform="scale(1,-1)">57</text>
<circle cx="518" cy="0" r="3" fill="red"/>
<text x="523" y="5" font-size="8" fill="white" transform="scale(1,-1)">58</text>
<circle cx="623" cy="0" r="2" fill="blue"/>
<text x="628" y="5" font-size="8" fill="white" transform="scale(1,-1)">59</text>
<circle cx="794" cy="67" r="2" fill="blue"/>
<text x="799" y="72" font-size="8" fill="white" transform="scale(1,-1)">60</text>
<circle cx="857" cy="128" r="3" fill="red"/>
<text x="862" y="133" font-size="8" fill="white" transform="scale(1,-1)">61</text>
<circle cx="919" cy="188" r="2" fill="blue"/>
<text x="924" y="193" font-size="8" fill="white" transform="scale(1,-1)">62</text>
<circle cx="997" cy="357" r="2" fill="blue"/>
<text x="1002" y="362" font-size="8" fill="white" transform="scale(1,-1)">63</text>
<polyline points="1010,458 825,458 816,392 772,279 735,238 698,196 591,150 518,150 451,150 351,193 314,231 277,268 229,366 214,422 199,477 186,592 186,646 186,851 186,905 199,1020 214,1075 229,1130 278,1228 315,1265 351,1302 452,1345 518,1345 591,1345 698,1296 735,1253 772,1210 816,1096 825,1030 1010,1030 998,1134 923,1306 861,1368 799,1429 627,1496 518,1496 427,1496 281,1445 224,1400 166,1355 83,1232 56,1160 28,1088 1,930 0,849 0,646 1,565 28,407 56,335 83,263 166,141 224,96 281,51 428,0 518,0 623,0 794,67 857,128 919,188 997,357 " fill="none" stroke="green" stroke-width="1"/>
</g>
</svg>
