<?xml version="1.0" encoding="UTF-8"?>
<svg width="1048" height="1556" xmlns="http://www.w3.org/2000/svg">
<g transform="translate(50,1506) scale(1,-1)">
<circle cx="0" cy="0" r="3" fill="red"/>
<text x="5" y="5" font-size="8" fill="white" transform="scale(1,-1)">0</text>
<circle cx="466" cy="0" r="3" fill="red"/>
<text x="471" y="5" font-size="8" fill="white" transform="scale(1,-1)">1</text>
<circle cx="559" cy="1" r="2" fill="blue"/>
<text x="564" y="6" font-size="8" fill="white" transform="scale(1,-1)">2</text>
<circle cx="734" cy="57" r="2" fill="blue"/>
<text x="739" y="62" font-size="8" fill="white" transform="scale(1,-1)">3</text>
<circle cx="801" cy="110" r="3" fill="red"/>
<text x="806" y="115" font-size="8" fill="white" transform="scale(1,-1)">4</text>
<circle cx="868" cy="162" r="2" fill="blue"/>
<text x="873" y="167" font-size="8" fill="white" transform="scale(1,-1)">5</text>
<circle cx="948" cy="318" r="2" fill="blue"/>
<text x="953" y="323" font-size="8" fill="white" transform="scale(1,-1)">6</text>
<circle cx="947" cy="420" r="3" fill="red"/>
<text x="952" y="425" font-size="8" fill="white" transform="scale(1,-1)">7</text>
<circle cx="947" cy="485" r="2" fill="blue"/>
<text x="952" y="490" font-size="8" fill="white" transform="scale(1,-1)">8</text>
<circle cx="908" cy="597" r="2" fill="blue"/>
<text x="913" y="602" font-size="8" fill="white" transform="scale(1,-1)">9</text>
<circle cx="873" cy="642" r="3" fill="red"/>
<text x="878" y="647" font-size="8" fill="white" transform="scale(1,-1)">10</text>
<circle cx="840" cy="683" r="2" fill="blue"/>
<text x="845" y="688" font-size="8" fill="white" transform="scale(1,-1)">11</text>
<circle cx="738" cy="751" r="2" fill="blue"/>
<text x="743" y="756" font-size="8" fill="white" transform="scale(1,-1)">12</text>
<circle cx="683" cy="764" r="3" fill="red"/>
<text x="688" y="769" font-size="8" fill="white" transform="scale(1,-1)">13</text>
<circle cx="683" cy="767" r="3" fill="red"/>
<text x="688" y="772" font-size="8" fill="white" transform="scale(1,-1)">14</text>
<circle cx="736" cy="790" r="2" fill="blue"/>
<text x="741" y="795" font-size="8" fill="white" transform="scale(1,-1)">15</text>
<circle cx="811" cy="842" r="2" fill="blue"/>
<text x="816" y="847" font-size="8" fill="white" transform="scale(1,-1)">16</text>
<circle cx="842" cy="880" r="3" fill="red"/>
<text x="847" y="885" font-size="8" fill="white" transform="scale(1,-1)">17</text>
<circle cx="872" cy="917" r="2" fill="blue"/>
<text x="877" y="922" font-size="8" fill="white" transform="scale(1,-1)">18</text>
<circle cx="907" cy="1011" r="2" fill="blue"/>
<text x="912" y="1016" font-size="8" fill="white" transform="scale(1,-1)">19</text>
<circle cx="908" cy="1068" r="3" fill="red"/>
<text x="913" y="1073" font-size="8" fill="white" transform="scale(1,-1)">20</text>
<circle cx="909" cy="1170" r="2" fill="blue"/>
<text x="914" y="1175" font-size="8" fill="white" transform="scale(1,-1)">21</text>
<circle cx="829" cy="1316" r="2" fill="blue"/>
<text x="834" y="1321" font-size="8" fill="white" transform="scale(1,-1)">22</text>
<circle cx="762" cy="1363" r="3" fill="red"/>
<text x="767" y="1368" font-size="8" fill="white" transform="scale(1,-1)">23</text>
<circle cx="695" cy="1410" r="2" fill="blue"/>
<text x="700" y="1415" font-size="8" fill="white" transform="scale(1,-1)">24</text>
<circle cx="523" cy="1455" r="2" fill="blue"/>
<text x="528" y="1460" font-size="8" fill="white" transform="scale(1,-1)">25</text>
<circle cx="433" cy="1456" r="3" fill="red"/>
<text x="438" y="1461" font-size="8" fill="white" transform="scale(1,-1)">26</text>
<circle cx="0" cy="1456" r="3" fill="red"/>
<text x="5" y="1461" font-size="8" fill="white" transform="scale(1,-1)">27</text>
<circle cx="186" cy="681" r="3" fill="red"/>
<text x="191" y="686" font-size="8" fill="white" transform="scale(1,-1)">28</text>
<circle cx="481" cy="681" r="3" fill="red"/>
<text x="486" y="686" font-size="8" fill="white" transform="scale(1,-1)">29</text>
<circle cx="540" cy="679" r="2" fill="blue"/>
<text x="545" y="684" font-size="8" fill="white" transform="scale(1,-1)">30</text>
<circle cx="642" cy="643" r="2" fill="blue"/>
<text x="647" y="648" font-size="8" fill="white" transform="scale(1,-1)">31</text>
<circle cx="680" cy="610" r="3" fill="red"/>
<text x="685" y="615" font-size="8" fill="white" transform="scale(1,-1)">32</text>
<circle cx="718" cy="576" r="2" fill="blue"/>
<text x="723" y="581" font-size="8" fill="white" transform="scale(1,-1)">33</text>
<circle cx="761" cy="480" r="2" fill="blue"/>
<text x="766" y="485" font-size="8" fill="white" transform="scale(1,-1)">34</text>
<circle cx="760" cy="418" r="3" fill="red"/>
<text x="765" y="423" font-size="8" fill="white" transform="scale(1,-1)">35</text>
<circle cx="760" cy="357" r="2" fill="blue"/>
<text x="765" y="362" font-size="8" fill="white" transform="scale(1,-1)">36</text>
<circle cx="713" cy="261" r="2" fill="blue"/>
<text x="718" y="266" font-size="8" fill="white" transform="scale(1,-1)">37</text>
<circle cx="673" cy="228" r="3" fill="red"/>
<text x="678" y="233" font-size="8" fill="white" transform="scale(1,-1)">38</text>
<circle cx="633" cy="195" r="2" fill="blue"/>
<text x="638" y="200" font-size="8" fill="white" transform="scale(1,-1)">39</text>
<circle cx="529" cy="158" r="2" fill="blue"/>
<text x="534" y="163" font-size="8" fill="white" transform="scale(1,-1)">40</text>
<circle cx="471" cy="157" r="3" fill="red"/>
<text x="476" y="162" font-size="8" fill="white" transform="scale(1,-1)">41</text>
<circle cx="186" cy="157" r="3" fill="red"/>
<text x="191" y="162" font-size="8" fill="white" transform="scale(1,-1)">42</text>
<circle cx="186" cy="835" r="3" fill="red"/>
<text x="191" y="840" font-size="8" fill="white" transform="scale(1,-1)">43</text>
<circle cx="186" cy="1298" r="3" fill="red"/>
<text x="191" y="1303" font-size="8" fill="white" transform="scale(1,-1)">44</text>
<circle cx="439" cy="1298" r="3" fill="red"/>
<text x="444" y="1303" font-size="8" fill="white" transform="scale(1,-1)">45</text>
<circle cx="493" cy="1297" r="2" fill="blue"/>
<text x="498" y="1302" font-size="8" fill="white" transform="scale(1,-1)">46</text>
<circle cx="596" cy="1271" r="2" fill="blue"/>
<text x="601" y="1276" font-size="8" fill="white" transform="scale(1,-1)">47</text>
<circle cx="636" cy="1244" r="3" fill="red"/>
<text x="641" y="1249" font-size="8" fill="white" transform="scale(1,-1)">48</text>
<circle cx="675" cy="1216" r="2" fill="blue"/>
<text x="680" y="1221" font-size="8" fill="white" transform="scale(1,-1)">49</text>
<circle cx="722" cy="1130" r="2" fill="blue"/>
<text x="727" y="1135" font-size="8" fill="white" transform="scale(1,-1)">50</text>
<circle cx="722" cy="1069" r="3" fill="red"/>
<text x="727" y="1074" font-size="8" fill="white" transform="scale(1,-1)">51</text>
<circle cx="722" cy="1012" r="2" fill="blue"/>
<text x="727" y="1017" font-size="8" fill="white" transform="scale(1,-1)">52</text>
<circle cx="674" cy="926" r="2" fill="blue"/>
<text x="679" y="931" font-size="8" fill="white" transform="scale(1,-1)">53</text>
<circle cx="635" cy="897" r="3" fill="red"/>
<text x="640" y="902" font-size="8" fill="white" transform="scale(1,-1)">54</text>
<circle cx="596" cy="867" r="2" fill="blue"/>
<text x="601" y="872" font-size="8" fill="white" transform="scale(1,-1)">55</text>
<circle cx="496" cy="836" r="2" fill="blue"/>
<text x="501" y="841" font-size="8" fill="white" transform="scale(1,-1)">56</text>
<circle cx="444" cy="835" r="3" fill="red"/>
<text x="449" y="840" font-size="8" fill="white" transform="scale(1,-1)">57</text>
<polyline points="0,0 466,0 559,1 734,57 801,110 868,162 948,318 947,420 947,485 908,597 873,642 840,683 738,751 683,764 683,767 736,790 811,842 842,880 872,917 907,1011 908,1068 909,1170 829,1316 762,1363 695,1410 523,1455 433,1456 0,1456 " fill="none" stroke="green" stroke-width="1"/>
<polyline points="186,681 481,681 540,679 642,643 680,610 718,576 761,480 760,418 760,357 713,261 673,228 633,195 529,158 471,157 186,157 " fill="none" stroke="green" stroke-width="1"/>
<polyline points="186,835 186,1298 439,1298 493,1297 596,1271 636,1244 675,1216 722,1130 722,1069 722,1012 674,926 635,897 596,867 496,836 444,835 " fill="none" stroke="green" stroke-width="1"/>
</g>
</svg>
